<?xml version="1.0" encoding="UTF-8" standalone="no"?>
<!DOCTYPE svg PUBLIC "-//W3C//DTD SVG 1.1//EN"
 "http://www.w3.org/Graphics/SVG/1.1/DTD/svg11.dtd">
<!-- Generated by graphviz version 2.40.1 (20161225.0304)
 -->
<!-- Title: %3 Pages: 1 -->
<svg width="1141pt" height="260pt"
 viewBox="0.00 0.00 1140.64 260.00" xmlns="http://www.w3.org/2000/svg" xmlns:xlink="http://www.w3.org/1999/xlink">
<g id="graph0" class="graph" transform="scale(1 1) rotate(0) translate(4 256)">
<title>%3</title>
<polygon fill="#ffffff" stroke="transparent" points="-4,4 -4,-256 1136.6396,-256 1136.6396,4 -4,4"/>
<!-- android&#45;hello&#45;world -->
<g id="node1" class="node">
<title>android&#45;hello&#45;world</title>
<ellipse fill="none" stroke="#000000" cx="81.2428" cy="-234" rx="81.4863" ry="18"/>
<text text-anchor="middle" x="81.2428" y="-230.3" font-family="Times,serif" font-size="14.00" fill="#000000">android&#45;hello&#45;world</text>
</g>
<!-- aridity -->
<g id="node2" class="node">
<title>aridity</title>
<ellipse fill="none" stroke="#000000" cx="324.2428" cy="-90" rx="33.5952" ry="18"/>
<text text-anchor="middle" x="324.2428" y="-86.3" font-family="Times,serif" font-size="14.00" fill="#000000">aridity</text>
</g>
<!-- Concern -->
<g id="node3" class="node">
<title>Concern</title>
<ellipse fill="none" stroke="#000000" cx="566.2428" cy="-162" rx="40.0939" ry="18"/>
<text text-anchor="middle" x="566.2428" y="-158.3" font-family="Times,serif" font-size="14.00" fill="#000000">Concern</text>
</g>
<!-- Concern&#45;&gt;aridity -->
<g id="edge1" class="edge">
<title>Concern&#45;&gt;aridity</title>
<path fill="none" stroke="#000000" d="M532.5937,-151.9887C488.3096,-138.8133 410.6009,-115.6933 363.6288,-101.7181"/>
<polygon fill="#000000" stroke="#000000" points="364.3937,-98.2942 353.8108,-98.7971 362.3975,-105.0035 364.3937,-98.2942"/>
</g>
<!-- lagoon -->
<g id="node4" class="node">
<title>lagoon</title>
<ellipse fill="none" stroke="#000000" cx="505.2428" cy="-90" rx="34.394" ry="18"/>
<text text-anchor="middle" x="505.2428" y="-86.3" font-family="Times,serif" font-size="14.00" fill="#000000">lagoon</text>
</g>
<!-- Concern&#45;&gt;lagoon -->
<g id="edge2" class="edge">
<title>Concern&#45;&gt;lagoon</title>
<path fill="none" stroke="#000000" d="M551.7866,-144.937C544.1139,-135.8806 534.5474,-124.5891 526.0864,-114.6023"/>
<polygon fill="#000000" stroke="#000000" points="528.7298,-112.3079 519.5952,-106.9405 523.3889,-116.8329 528.7298,-112.3079"/>
</g>
<!-- timelyOSC -->
<g id="node5" class="node">
<title>timelyOSC</title>
<ellipse fill="none" stroke="#000000" cx="799.2428" cy="-90" rx="50.8918" ry="18"/>
<text text-anchor="middle" x="799.2428" y="-86.3" font-family="Times,serif" font-size="14.00" fill="#000000">timelyOSC</text>
</g>
<!-- Concern&#45;&gt;timelyOSC -->
<g id="edge3" class="edge">
<title>Concern&#45;&gt;timelyOSC</title>
<path fill="none" stroke="#000000" d="M599.626,-151.6842C639.3674,-139.4035 706.0345,-118.8026 751.2875,-104.8188"/>
<polygon fill="#000000" stroke="#000000" points="752.363,-108.1498 760.8838,-101.8534 750.2962,-101.4619 752.363,-108.1498"/>
</g>
<!-- diapyr -->
<g id="node7" class="node">
<title>diapyr</title>
<ellipse fill="none" stroke="#000000" cx="505.2428" cy="-18" rx="33.2948" ry="18"/>
<text text-anchor="middle" x="505.2428" y="-14.3" font-family="Times,serif" font-size="14.00" fill="#000000">diapyr</text>
</g>
<!-- lagoon&#45;&gt;diapyr -->
<g id="edge7" class="edge">
<title>lagoon&#45;&gt;diapyr</title>
<path fill="none" stroke="#000000" d="M505.2428,-71.8314C505.2428,-64.131 505.2428,-54.9743 505.2428,-46.4166"/>
<polygon fill="#000000" stroke="#000000" points="508.7429,-46.4132 505.2428,-36.4133 501.7429,-46.4133 508.7429,-46.4132"/>
</g>
<!-- Cowpox -->
<g id="node6" class="node">
<title>Cowpox</title>
<ellipse fill="none" stroke="#000000" cx="358.2428" cy="-162" rx="40.0939" ry="18"/>
<text text-anchor="middle" x="358.2428" y="-158.3" font-family="Times,serif" font-size="14.00" fill="#000000">Cowpox</text>
</g>
<!-- Cowpox&#45;&gt;aridity -->
<g id="edge4" class="edge">
<title>Cowpox&#45;&gt;aridity</title>
<path fill="none" stroke="#000000" d="M349.8383,-144.2022C345.9268,-135.9192 341.1915,-125.8915 336.8628,-116.7248"/>
<polygon fill="#000000" stroke="#000000" points="339.9856,-115.141 332.5506,-107.593 333.6559,-118.1301 339.9856,-115.141"/>
</g>
<!-- Cowpox&#45;&gt;lagoon -->
<g id="edge6" class="edge">
<title>Cowpox&#45;&gt;lagoon</title>
<path fill="none" stroke="#000000" d="M385.5479,-148.6261C409.6551,-136.8185 444.9121,-119.5497 470.921,-106.8107"/>
<polygon fill="#000000" stroke="#000000" points="472.6059,-109.8827 480.047,-102.3408 469.5268,-103.5963 472.6059,-109.8827"/>
</g>
<!-- Cowpox&#45;&gt;diapyr -->
<g id="edge5" class="edge">
<title>Cowpox&#45;&gt;diapyr</title>
<path fill="none" stroke="#000000" d="M374.4434,-145.2075C392.1275,-126.9741 421.379,-97.0965 447.2428,-72 458.0222,-61.5404 470.1558,-50.1813 480.5282,-40.5921"/>
<polygon fill="#000000" stroke="#000000" points="483.082,-42.9982 488.0651,-33.6484 478.339,-37.85 483.082,-42.9982"/>
</g>
<!-- dotfiles -->
<g id="node8" class="node">
<title>dotfiles</title>
<ellipse fill="none" stroke="#000000" cx="919.2428" cy="-234" rx="37.0935" ry="18"/>
<text text-anchor="middle" x="919.2428" y="-230.3" font-family="Times,serif" font-size="14.00" fill="#000000">dotfiles</text>
</g>
<!-- Leytonium -->
<g id="node9" class="node">
<title>Leytonium</title>
<ellipse fill="none" stroke="#000000" cx="230.2428" cy="-234" rx="50.0912" ry="18"/>
<text text-anchor="middle" x="230.2428" y="-230.3" font-family="Times,serif" font-size="14.00" fill="#000000">Leytonium</text>
</g>
<!-- Leytonium&#45;&gt;aridity -->
<g id="edge8" class="edge">
<title>Leytonium&#45;&gt;aridity</title>
<path fill="none" stroke="#000000" d="M212.3631,-216.8612C194.9833,-198.0661 173.3599,-167.4595 189.2428,-144 209.5226,-114.046 249.3995,-100.7062 280.5792,-94.7662"/>
<polygon fill="#000000" stroke="#000000" points="281.5119,-98.1576 290.7789,-93.0222 280.3321,-91.2578 281.5119,-98.1576"/>
</g>
<!-- Leytonium&#45;&gt;lagoon -->
<g id="edge9" class="edge">
<title>Leytonium&#45;&gt;lagoon</title>
<path fill="none" stroke="#000000" d="M278.8449,-229.3527C342.8627,-222.267 450.6814,-206.6912 479.2428,-180 496.0639,-164.2803 502.2321,-138.4263 504.3853,-118.4524"/>
<polygon fill="#000000" stroke="#000000" points="507.8852,-118.5935 505.1958,-108.3457 500.9076,-118.034 507.8852,-118.5935"/>
</g>
<!-- pyven -->
<g id="node10" class="node">
<title>pyven</title>
<ellipse fill="none" stroke="#000000" cx="230.2428" cy="-162" rx="32.4942" ry="18"/>
<text text-anchor="middle" x="230.2428" y="-158.3" font-family="Times,serif" font-size="14.00" fill="#000000">pyven</text>
</g>
<!-- Leytonium&#45;&gt;pyven -->
<g id="edge10" class="edge">
<title>Leytonium&#45;&gt;pyven</title>
<path fill="none" stroke="#000000" d="M230.2428,-215.8314C230.2428,-208.131 230.2428,-198.9743 230.2428,-190.4166"/>
<polygon fill="#000000" stroke="#000000" points="233.7429,-190.4132 230.2428,-180.4133 226.7429,-190.4133 233.7429,-190.4132"/>
</g>
<!-- pyven&#45;&gt;aridity -->
<g id="edge28" class="edge">
<title>pyven&#45;&gt;aridity</title>
<path fill="none" stroke="#000000" d="M249.7197,-147.0816C263.3316,-136.6554 281.6992,-122.5866 296.7931,-111.0253"/>
<polygon fill="#000000" stroke="#000000" points="298.9804,-113.7587 304.7909,-104.8993 294.7238,-108.2016 298.9804,-113.7587"/>
</g>
<!-- pyven&#45;&gt;lagoon -->
<g id="edge30" class="edge">
<title>pyven&#45;&gt;lagoon</title>
<path fill="none" stroke="#000000" d="M259.6726,-154.2947C308.9792,-141.3854 408.3717,-115.3626 464.4105,-100.6906"/>
<polygon fill="#000000" stroke="#000000" points="465.5604,-104.0076 474.3478,-98.0889 463.7874,-97.2359 465.5604,-104.0076"/>
</g>
<!-- pyven&#45;&gt;diapyr -->
<g id="edge29" class="edge">
<title>pyven&#45;&gt;diapyr</title>
<path fill="none" stroke="#000000" d="M235.5121,-144.2115C242.543,-123.6398 257.0056,-90.269 281.2428,-72 309.5865,-50.6357 406.2683,-32.943 462.9272,-24.0973"/>
<polygon fill="#000000" stroke="#000000" points="463.6617,-27.5256 473.0154,-22.5497 462.6002,-20.6066 463.6617,-27.5256"/>
</g>
<!-- Lurlene -->
<g id="node11" class="node">
<title>Lurlene</title>
<ellipse fill="none" stroke="#000000" cx="886.2428" cy="-162" rx="38.1938" ry="18"/>
<text text-anchor="middle" x="886.2428" y="-158.3" font-family="Times,serif" font-size="14.00" fill="#000000">Lurlene</text>
</g>
<!-- Lurlene&#45;&gt;timelyOSC -->
<g id="edge13" class="edge">
<title>Lurlene&#45;&gt;timelyOSC</title>
<path fill="none" stroke="#000000" d="M866.9347,-146.0209C855.244,-136.3458 840.1352,-123.842 827.1586,-113.1027"/>
<polygon fill="#000000" stroke="#000000" points="829.3394,-110.3644 819.4039,-106.6851 824.8764,-115.7572 829.3394,-110.3644"/>
</g>
<!-- Lurlene&#45;&gt;diapyr -->
<g id="edge11" class="edge">
<title>Lurlene&#45;&gt;diapyr</title>
<path fill="none" stroke="#000000" d="M886.1985,-143.7791C885.0934,-123.1177 879.9303,-89.9751 859.2428,-72 813.5733,-32.3184 632.7252,-21.7617 548.6444,-18.9807"/>
<polygon fill="#000000" stroke="#000000" points="548.7488,-15.4823 538.6454,-18.6717 548.5325,-22.479 548.7488,-15.4823"/>
</g>
<!-- splut -->
<g id="node12" class="node">
<title>splut</title>
<ellipse fill="none" stroke="#000000" cx="1014.2428" cy="-90" rx="27.8951" ry="18"/>
<text text-anchor="middle" x="1014.2428" y="-86.3" font-family="Times,serif" font-size="14.00" fill="#000000">splut</text>
</g>
<!-- Lurlene&#45;&gt;splut -->
<g id="edge12" class="edge">
<title>Lurlene&#45;&gt;splut</title>
<path fill="none" stroke="#000000" d="M910.9225,-148.1177C931.8653,-136.3374 961.9795,-119.3981 984.2978,-106.844"/>
<polygon fill="#000000" stroke="#000000" points="986.0346,-109.8829 993.0344,-101.9297 982.6027,-103.7819 986.0346,-109.8829"/>
</g>
<!-- minBlepy -->
<g id="node13" class="node">
<title>minBlepy</title>
<ellipse fill="none" stroke="#000000" cx="708.2428" cy="-162" rx="46.2923" ry="18"/>
<text text-anchor="middle" x="708.2428" y="-158.3" font-family="Times,serif" font-size="14.00" fill="#000000">minBlepy</text>
</g>
<!-- minBlepy&#45;&gt;lagoon -->
<g id="edge14" class="edge">
<title>minBlepy&#45;&gt;lagoon</title>
<path fill="none" stroke="#000000" d="M673.8066,-149.7862C637.6705,-136.9694 581.0069,-116.872 543.4989,-103.5687"/>
<polygon fill="#000000" stroke="#000000" points="544.5255,-100.2192 533.9307,-100.175 542.1855,-106.8165 544.5255,-100.2192"/>
</g>
<!-- pyrbo -->
<g id="node14" class="node">
<title>pyrbo</title>
<ellipse fill="none" stroke="#000000" cx="937.2428" cy="-90" rx="31.3957" ry="18"/>
<text text-anchor="middle" x="937.2428" y="-86.3" font-family="Times,serif" font-size="14.00" fill="#000000">pyrbo</text>
</g>
<!-- minBlepy&#45;&gt;pyrbo -->
<g id="edge15" class="edge">
<title>minBlepy&#45;&gt;pyrbo</title>
<path fill="none" stroke="#000000" d="M744.276,-150.6708C786.7212,-137.3256 856.8854,-115.2652 899.8939,-101.7429"/>
<polygon fill="#000000" stroke="#000000" points="901.1961,-105.0025 909.6859,-98.6642 899.0965,-98.3247 901.1961,-105.0025"/>
</g>
<!-- pyrbo&#45;&gt;diapyr -->
<g id="edge26" class="edge">
<title>pyrbo&#45;&gt;diapyr</title>
<path fill="none" stroke="#000000" d="M912.3782,-78.8117C905.9249,-76.2542 898.9114,-73.7709 892.2428,-72 770.0701,-39.5553 620.717,-25.7327 548.4787,-20.6123"/>
<polygon fill="#000000" stroke="#000000" points="548.6091,-17.1131 538.3925,-19.9188 548.1288,-24.0966 548.6091,-17.1131"/>
</g>
<!-- nativecommon -->
<g id="node15" class="node">
<title>nativecommon</title>
<ellipse fill="none" stroke="#000000" cx="1016.2428" cy="-18" rx="63.8893" ry="18"/>
<text text-anchor="middle" x="1016.2428" y="-14.3" font-family="Times,serif" font-size="14.00" fill="#000000">nativecommon</text>
</g>
<!-- pyrbo&#45;&gt;nativecommon -->
<g id="edge27" class="edge">
<title>pyrbo&#45;&gt;nativecommon</title>
<path fill="none" stroke="#000000" d="M953.9967,-74.7307C964.3998,-65.2493 977.996,-52.8578 989.8269,-42.0753"/>
<polygon fill="#000000" stroke="#000000" points="992.2619,-44.5916 997.2952,-35.2687 987.5466,-39.4179 992.2619,-44.5916"/>
</g>
<!-- outjack -->
<g id="node16" class="node">
<title>outjack</title>
<ellipse fill="none" stroke="#000000" cx="1096.2428" cy="-90" rx="36.2938" ry="18"/>
<text text-anchor="middle" x="1096.2428" y="-86.3" font-family="Times,serif" font-size="14.00" fill="#000000">outjack</text>
</g>
<!-- outjack&#45;&gt;nativecommon -->
<g id="edge16" class="edge">
<title>outjack&#45;&gt;nativecommon</title>
<path fill="none" stroke="#000000" d="M1078.4882,-74.0209C1068.0906,-64.663 1054.7526,-52.6588 1043.0922,-42.1645"/>
<polygon fill="#000000" stroke="#000000" points="1045.1188,-39.2796 1035.3444,-35.1915 1040.436,-44.4827 1045.1188,-39.2796"/>
</g>
<!-- pym2149 -->
<g id="node17" class="node">
<title>pym2149</title>
<ellipse fill="none" stroke="#000000" cx="820.2428" cy="-234" rx="44.393" ry="18"/>
<text text-anchor="middle" x="820.2428" y="-230.3" font-family="Times,serif" font-size="14.00" fill="#000000">pym2149</text>
</g>
<!-- pym2149&#45;&gt;aridity -->
<g id="edge17" class="edge">
<title>pym2149&#45;&gt;aridity</title>
<path fill="none" stroke="#000000" d="M775.931,-232.6387C657.4552,-228.5454 340.2359,-214.4409 309.2428,-180 293.8537,-162.8989 300.7535,-136.2346 309.6054,-116.362"/>
<polygon fill="#000000" stroke="#000000" points="312.8215,-117.7506 314.0185,-107.2236 306.518,-114.7065 312.8215,-117.7506"/>
</g>
<!-- pym2149&#45;&gt;lagoon -->
<g id="edge19" class="edge">
<title>pym2149&#45;&gt;lagoon</title>
<path fill="none" stroke="#000000" d="M780.0198,-226.2858C744.8179,-218.3375 693.2049,-203.7139 653.2428,-180 633.2358,-168.1276 634.3465,-157.2771 615.2428,-144 592.5686,-128.2414 564.6104,-114.5813 542.5547,-104.9426"/>
<polygon fill="#000000" stroke="#000000" points="543.7577,-101.6505 533.1872,-100.9339 541.0038,-108.086 543.7577,-101.6505"/>
</g>
<!-- pym2149&#45;&gt;timelyOSC -->
<g id="edge25" class="edge">
<title>pym2149&#45;&gt;timelyOSC</title>
<path fill="none" stroke="#000000" d="M817.5831,-215.7623C814.0013,-191.201 807.5914,-147.2474 803.3778,-118.3541"/>
<polygon fill="#000000" stroke="#000000" points="806.7874,-117.4798 801.8809,-108.0896 799.8606,-118.4901 806.7874,-117.4798"/>
</g>
<!-- pym2149&#45;&gt;diapyr -->
<g id="edge18" class="edge">
<title>pym2149&#45;&gt;diapyr</title>
<path fill="none" stroke="#000000" d="M812.5423,-216.0442C803.2921,-196.2425 786.1156,-164.4802 763.2428,-144 697.1673,-84.8364 598.3112,-47.0478 544.1592,-29.5013"/>
<polygon fill="#000000" stroke="#000000" points="545.1764,-26.1521 534.586,-26.46 543.0569,-32.8236 545.1764,-26.1521"/>
</g>
<!-- pym2149&#45;&gt;Lurlene -->
<g id="edge20" class="edge">
<title>pym2149&#45;&gt;Lurlene</title>
<path fill="none" stroke="#000000" d="M835.8839,-216.937C844.1855,-207.8806 854.5362,-196.5891 863.6907,-186.6023"/>
<polygon fill="#000000" stroke="#000000" points="866.5368,-188.6771 870.714,-178.9405 861.3767,-183.947 866.5368,-188.6771"/>
</g>
<!-- pym2149&#45;&gt;splut -->
<g id="edge24" class="edge">
<title>pym2149&#45;&gt;splut</title>
<path fill="none" stroke="#000000" d="M854.5583,-222.4839C888.2121,-210.7491 936.6703,-192.54 952.2428,-180 973.5785,-162.8191 990.5685,-136.392 1001.3285,-116.6122"/>
<polygon fill="#000000" stroke="#000000" points="1004.5592,-117.9877 1006.102,-107.5058 998.3593,-114.7378 1004.5592,-117.9877"/>
</g>
<!-- pym2149&#45;&gt;minBlepy -->
<g id="edge21" class="edge">
<title>pym2149&#45;&gt;minBlepy</title>
<path fill="none" stroke="#000000" d="M796.4905,-218.7307C780.4144,-208.396 758.9597,-194.6038 741.2305,-183.2064"/>
<polygon fill="#000000" stroke="#000000" points="742.6515,-179.959 732.347,-177.4956 738.8661,-185.8473 742.6515,-179.959"/>
</g>
<!-- pym2149&#45;&gt;pyrbo -->
<g id="edge23" class="edge">
<title>pym2149&#45;&gt;pyrbo</title>
<path fill="none" stroke="#000000" d="M853.9286,-222.2983C883.7122,-211.2095 923.8518,-194.1874 933.2428,-180 945.2613,-161.8429 945.3909,-136.8174 943.0081,-117.7637"/>
<polygon fill="#000000" stroke="#000000" points="946.4665,-117.2251 941.4854,-107.8742 939.5481,-118.2904 946.4665,-117.2251"/>
</g>
<!-- pym2149&#45;&gt;outjack -->
<g id="edge22" class="edge">
<title>pym2149&#45;&gt;outjack</title>
<path fill="none" stroke="#000000" d="M854.1617,-222.4486C860.5009,-220.2988 867.072,-218.0763 873.2428,-216 921.1974,-199.8645 936.6691,-203.9413 981.2428,-180 1015.4568,-161.6231 1049.9022,-133.013 1072.0511,-112.9968"/>
<polygon fill="#000000" stroke="#000000" points="1074.6264,-115.3841 1079.6316,-106.0461 1069.8956,-110.2247 1074.6264,-115.3841"/>
</g>
<!-- soak -->
<g id="node18" class="node">
<title>soak</title>
<ellipse fill="none" stroke="#000000" cx="443.2428" cy="-162" rx="27" ry="18"/>
<text text-anchor="middle" x="443.2428" y="-158.3" font-family="Times,serif" font-size="14.00" fill="#000000">soak</text>
</g>
<!-- soak&#45;&gt;aridity -->
<g id="edge31" class="edge">
<title>soak&#45;&gt;aridity</title>
<path fill="none" stroke="#000000" d="M423.0561,-149.7862C404.605,-138.6225 377.0246,-121.9352 355.6871,-109.0251"/>
<polygon fill="#000000" stroke="#000000" points="357.3372,-105.9328 346.9695,-103.7506 353.7135,-111.9219 357.3372,-105.9328"/>
</g>
<!-- soak&#45;&gt;lagoon -->
<g id="edge33" class="edge">
<title>soak&#45;&gt;lagoon</title>
<path fill="none" stroke="#000000" d="M456.6959,-146.3771C464.7559,-137.017 475.1756,-124.9167 484.2943,-114.3273"/>
<polygon fill="#000000" stroke="#000000" points="487.08,-116.4561 490.9531,-106.5945 481.7756,-111.8884 487.08,-116.4561"/>
</g>
<!-- soak&#45;&gt;diapyr -->
<g id="edge32" class="edge">
<title>soak&#45;&gt;diapyr</title>
<path fill="none" stroke="#000000" d="M444.5871,-143.9742C446.5374,-125.2275 451.2173,-95.4034 462.2428,-72 467.3263,-61.2095 474.9568,-50.6468 482.3854,-41.766"/>
<polygon fill="#000000" stroke="#000000" points="485.1207,-43.9551 489.072,-34.1247 479.8528,-39.3454 485.1207,-43.9551"/>
</g>
</g>
</svg>
