<?xml version="1.0" encoding="UTF-8" standalone="no"?>
<!DOCTYPE svg PUBLIC "-//W3C//DTD SVG 1.1//EN"
 "http://www.w3.org/Graphics/SVG/1.1/DTD/svg11.dtd">
<!-- Generated by graphviz version 2.40.1 (20161225.0304)
 -->
<!-- Title: %3 Pages: 1 -->
<svg width="1133pt" height="260pt"
 viewBox="0.00 0.00 1132.64 260.00" xmlns="http://www.w3.org/2000/svg" xmlns:xlink="http://www.w3.org/1999/xlink">
<g id="graph0" class="graph" transform="scale(1 1) rotate(0) translate(4 256)">
<title>%3</title>
<polygon fill="#ffffff" stroke="transparent" points="-4,4 -4,-256 1128.6396,-256 1128.6396,4 -4,4"/>
<!-- android&#45;hello&#45;world -->
<g id="node1" class="node">
<title>android&#45;hello&#45;world</title>
<ellipse fill="none" stroke="#000000" cx="81.2428" cy="-234" rx="81.4863" ry="18"/>
<text text-anchor="middle" x="81.2428" y="-230.3" font-family="Times,serif" font-size="14.00" fill="#000000">android&#45;hello&#45;world</text>
</g>
<!-- aridity -->
<g id="node2" class="node">
<title>aridity</title>
<ellipse fill="none" stroke="#000000" cx="324.2428" cy="-90" rx="33.5952" ry="18"/>
<text text-anchor="middle" x="324.2428" y="-86.3" font-family="Times,serif" font-size="14.00" fill="#000000">aridity</text>
</g>
<!-- Concern -->
<g id="node3" class="node">
<title>Concern</title>
<ellipse fill="none" stroke="#000000" cx="566.2428" cy="-162" rx="40.0939" ry="18"/>
<text text-anchor="middle" x="566.2428" y="-158.3" font-family="Times,serif" font-size="14.00" fill="#000000">Concern</text>
</g>
<!-- Concern&#45;&gt;aridity -->
<g id="edge1" class="edge">
<title>Concern&#45;&gt;aridity</title>
<path fill="none" stroke="#000000" d="M532.5937,-151.9887C488.3096,-138.8133 410.6009,-115.6933 363.6288,-101.7181"/>
<polygon fill="#000000" stroke="#000000" points="364.3937,-98.2942 353.8108,-98.7971 362.3975,-105.0035 364.3937,-98.2942"/>
</g>
<!-- lagoon -->
<g id="node4" class="node">
<title>lagoon</title>
<ellipse fill="none" stroke="#000000" cx="505.2428" cy="-90" rx="34.394" ry="18"/>
<text text-anchor="middle" x="505.2428" y="-86.3" font-family="Times,serif" font-size="14.00" fill="#000000">lagoon</text>
</g>
<!-- Concern&#45;&gt;lagoon -->
<g id="edge2" class="edge">
<title>Concern&#45;&gt;lagoon</title>
<path fill="none" stroke="#000000" d="M551.7866,-144.937C544.1139,-135.8806 534.5474,-124.5891 526.0864,-114.6023"/>
<polygon fill="#000000" stroke="#000000" points="528.7298,-112.3079 519.5952,-106.9405 523.3889,-116.8329 528.7298,-112.3079"/>
</g>
<!-- timelyOSC -->
<g id="node5" class="node">
<title>timelyOSC</title>
<ellipse fill="none" stroke="#000000" cx="791.2428" cy="-90" rx="50.8918" ry="18"/>
<text text-anchor="middle" x="791.2428" y="-86.3" font-family="Times,serif" font-size="14.00" fill="#000000">timelyOSC</text>
</g>
<!-- Concern&#45;&gt;timelyOSC -->
<g id="edge3" class="edge">
<title>Concern&#45;&gt;timelyOSC</title>
<path fill="none" stroke="#000000" d="M599.4423,-151.3762C637.5472,-139.1826 700.3481,-119.0863 743.6495,-105.2298"/>
<polygon fill="#000000" stroke="#000000" points="744.935,-108.4934 753.3925,-102.1121 742.8016,-101.8264 744.935,-108.4934"/>
</g>
<!-- diapyr -->
<g id="node7" class="node">
<title>diapyr</title>
<ellipse fill="none" stroke="#000000" cx="505.2428" cy="-18" rx="33.2948" ry="18"/>
<text text-anchor="middle" x="505.2428" y="-14.3" font-family="Times,serif" font-size="14.00" fill="#000000">diapyr</text>
</g>
<!-- lagoon&#45;&gt;diapyr -->
<g id="edge7" class="edge">
<title>lagoon&#45;&gt;diapyr</title>
<path fill="none" stroke="#000000" d="M505.2428,-71.8314C505.2428,-64.131 505.2428,-54.9743 505.2428,-46.4166"/>
<polygon fill="#000000" stroke="#000000" points="508.7429,-46.4132 505.2428,-36.4133 501.7429,-46.4133 508.7429,-46.4132"/>
</g>
<!-- Cowpox -->
<g id="node6" class="node">
<title>Cowpox</title>
<ellipse fill="none" stroke="#000000" cx="358.2428" cy="-162" rx="40.0939" ry="18"/>
<text text-anchor="middle" x="358.2428" y="-158.3" font-family="Times,serif" font-size="14.00" fill="#000000">Cowpox</text>
</g>
<!-- Cowpox&#45;&gt;aridity -->
<g id="edge4" class="edge">
<title>Cowpox&#45;&gt;aridity</title>
<path fill="none" stroke="#000000" d="M349.8383,-144.2022C345.9268,-135.9192 341.1915,-125.8915 336.8628,-116.7248"/>
<polygon fill="#000000" stroke="#000000" points="339.9856,-115.141 332.5506,-107.593 333.6559,-118.1301 339.9856,-115.141"/>
</g>
<!-- Cowpox&#45;&gt;lagoon -->
<g id="edge6" class="edge">
<title>Cowpox&#45;&gt;lagoon</title>
<path fill="none" stroke="#000000" d="M385.5479,-148.6261C409.6551,-136.8185 444.9121,-119.5497 470.921,-106.8107"/>
<polygon fill="#000000" stroke="#000000" points="472.6059,-109.8827 480.047,-102.3408 469.5268,-103.5963 472.6059,-109.8827"/>
</g>
<!-- Cowpox&#45;&gt;diapyr -->
<g id="edge5" class="edge">
<title>Cowpox&#45;&gt;diapyr</title>
<path fill="none" stroke="#000000" d="M374.4434,-145.2075C392.1275,-126.9741 421.379,-97.0965 447.2428,-72 458.0222,-61.5404 470.1558,-50.1813 480.5282,-40.5921"/>
<polygon fill="#000000" stroke="#000000" points="483.082,-42.9982 488.0651,-33.6484 478.339,-37.85 483.082,-42.9982"/>
</g>
<!-- dotfiles -->
<g id="node8" class="node">
<title>dotfiles</title>
<ellipse fill="none" stroke="#000000" cx="911.2428" cy="-234" rx="37.0935" ry="18"/>
<text text-anchor="middle" x="911.2428" y="-230.3" font-family="Times,serif" font-size="14.00" fill="#000000">dotfiles</text>
</g>
<!-- Leytonium -->
<g id="node9" class="node">
<title>Leytonium</title>
<ellipse fill="none" stroke="#000000" cx="230.2428" cy="-234" rx="50.0912" ry="18"/>
<text text-anchor="middle" x="230.2428" y="-230.3" font-family="Times,serif" font-size="14.00" fill="#000000">Leytonium</text>
</g>
<!-- Leytonium&#45;&gt;aridity -->
<g id="edge8" class="edge">
<title>Leytonium&#45;&gt;aridity</title>
<path fill="none" stroke="#000000" d="M212.3631,-216.8612C194.9833,-198.0661 173.3599,-167.4595 189.2428,-144 209.5226,-114.046 249.3995,-100.7062 280.5792,-94.7662"/>
<polygon fill="#000000" stroke="#000000" points="281.5119,-98.1576 290.7789,-93.0222 280.3321,-91.2578 281.5119,-98.1576"/>
</g>
<!-- Leytonium&#45;&gt;lagoon -->
<g id="edge9" class="edge">
<title>Leytonium&#45;&gt;lagoon</title>
<path fill="none" stroke="#000000" d="M278.8449,-229.3527C342.8627,-222.267 450.6814,-206.6912 479.2428,-180 496.0639,-164.2803 502.2321,-138.4263 504.3853,-118.4524"/>
<polygon fill="#000000" stroke="#000000" points="507.8852,-118.5935 505.1958,-108.3457 500.9076,-118.034 507.8852,-118.5935"/>
</g>
<!-- pyven -->
<g id="node10" class="node">
<title>pyven</title>
<ellipse fill="none" stroke="#000000" cx="230.2428" cy="-162" rx="32.4942" ry="18"/>
<text text-anchor="middle" x="230.2428" y="-158.3" font-family="Times,serif" font-size="14.00" fill="#000000">pyven</text>
</g>
<!-- Leytonium&#45;&gt;pyven -->
<g id="edge10" class="edge">
<title>Leytonium&#45;&gt;pyven</title>
<path fill="none" stroke="#000000" d="M230.2428,-215.8314C230.2428,-208.131 230.2428,-198.9743 230.2428,-190.4166"/>
<polygon fill="#000000" stroke="#000000" points="233.7429,-190.4132 230.2428,-180.4133 226.7429,-190.4133 233.7429,-190.4132"/>
</g>
<!-- pyven&#45;&gt;aridity -->
<g id="edge28" class="edge">
<title>pyven&#45;&gt;aridity</title>
<path fill="none" stroke="#000000" d="M249.7197,-147.0816C263.3316,-136.6554 281.6992,-122.5866 296.7931,-111.0253"/>
<polygon fill="#000000" stroke="#000000" points="298.9804,-113.7587 304.7909,-104.8993 294.7238,-108.2016 298.9804,-113.7587"/>
</g>
<!-- pyven&#45;&gt;lagoon -->
<g id="edge30" class="edge">
<title>pyven&#45;&gt;lagoon</title>
<path fill="none" stroke="#000000" d="M259.6726,-154.2947C308.9792,-141.3854 408.3717,-115.3626 464.4105,-100.6906"/>
<polygon fill="#000000" stroke="#000000" points="465.5604,-104.0076 474.3478,-98.0889 463.7874,-97.2359 465.5604,-104.0076"/>
</g>
<!-- pyven&#45;&gt;diapyr -->
<g id="edge29" class="edge">
<title>pyven&#45;&gt;diapyr</title>
<path fill="none" stroke="#000000" d="M235.5121,-144.2115C242.543,-123.6398 257.0056,-90.269 281.2428,-72 309.5865,-50.6357 406.2683,-32.943 462.9272,-24.0973"/>
<polygon fill="#000000" stroke="#000000" points="463.6617,-27.5256 473.0154,-22.5497 462.6002,-20.6066 463.6617,-27.5256"/>
</g>
<!-- Lurlene -->
<g id="node11" class="node">
<title>Lurlene</title>
<ellipse fill="none" stroke="#000000" cx="878.2428" cy="-162" rx="38.1938" ry="18"/>
<text text-anchor="middle" x="878.2428" y="-158.3" font-family="Times,serif" font-size="14.00" fill="#000000">Lurlene</text>
</g>
<!-- Lurlene&#45;&gt;timelyOSC -->
<g id="edge13" class="edge">
<title>Lurlene&#45;&gt;timelyOSC</title>
<path fill="none" stroke="#000000" d="M858.9347,-146.0209C847.244,-136.3458 832.1352,-123.842 819.1586,-113.1027"/>
<polygon fill="#000000" stroke="#000000" points="821.3394,-110.3644 811.4039,-106.6851 816.8764,-115.7572 821.3394,-110.3644"/>
</g>
<!-- Lurlene&#45;&gt;diapyr -->
<g id="edge11" class="edge">
<title>Lurlene&#45;&gt;diapyr</title>
<path fill="none" stroke="#000000" d="M878.1875,-143.7918C877.0721,-123.1421 871.8993,-90.0107 851.2428,-72 806.8038,-33.253 631.0941,-22.2216 548.5327,-19.1504"/>
<polygon fill="#000000" stroke="#000000" points="548.5843,-15.6501 538.4681,-18.7984 548.3396,-22.6458 548.5843,-15.6501"/>
</g>
<!-- splut -->
<g id="node12" class="node">
<title>splut</title>
<ellipse fill="none" stroke="#000000" cx="1006.2428" cy="-90" rx="27.8951" ry="18"/>
<text text-anchor="middle" x="1006.2428" y="-86.3" font-family="Times,serif" font-size="14.00" fill="#000000">splut</text>
</g>
<!-- Lurlene&#45;&gt;splut -->
<g id="edge12" class="edge">
<title>Lurlene&#45;&gt;splut</title>
<path fill="none" stroke="#000000" d="M902.9225,-148.1177C923.8653,-136.3374 953.9795,-119.3981 976.2978,-106.844"/>
<polygon fill="#000000" stroke="#000000" points="978.0346,-109.8829 985.0344,-101.9297 974.6027,-103.7819 978.0346,-109.8829"/>
</g>
<!-- mynblep -->
<g id="node13" class="node">
<title>mynblep</title>
<ellipse fill="none" stroke="#000000" cx="704.2428" cy="-162" rx="42.4939" ry="18"/>
<text text-anchor="middle" x="704.2428" y="-158.3" font-family="Times,serif" font-size="14.00" fill="#000000">mynblep</text>
</g>
<!-- mynblep&#45;&gt;lagoon -->
<g id="edge14" class="edge">
<title>mynblep&#45;&gt;lagoon</title>
<path fill="none" stroke="#000000" d="M671.8271,-150.2717C636.6442,-137.5422 580.515,-117.2342 543.274,-103.76"/>
<polygon fill="#000000" stroke="#000000" points="544.3654,-100.4329 533.7712,-100.3218 541.9838,-107.0153 544.3654,-100.4329"/>
</g>
<!-- pyrbo -->
<g id="node14" class="node">
<title>pyrbo</title>
<ellipse fill="none" stroke="#000000" cx="929.2428" cy="-90" rx="31.3957" ry="18"/>
<text text-anchor="middle" x="929.2428" y="-86.3" font-family="Times,serif" font-size="14.00" fill="#000000">pyrbo</text>
</g>
<!-- mynblep&#45;&gt;pyrbo -->
<g id="edge15" class="edge">
<title>mynblep&#45;&gt;pyrbo</title>
<path fill="none" stroke="#000000" d="M738.4154,-151.0647C779.8428,-137.808 849.4022,-115.549 892.1162,-101.8805"/>
<polygon fill="#000000" stroke="#000000" points="893.3857,-105.1492 901.8432,-98.7679 891.2522,-98.4822 893.3857,-105.1492"/>
</g>
<!-- pyrbo&#45;&gt;diapyr -->
<g id="edge26" class="edge">
<title>pyrbo&#45;&gt;diapyr</title>
<path fill="none" stroke="#000000" d="M904.3747,-78.825C897.9214,-76.2673 890.9088,-73.7806 884.2428,-72 765.1435,-40.1873 619.674,-26.1262 548.5657,-20.7934"/>
<polygon fill="#000000" stroke="#000000" points="548.444,-17.2754 538.2162,-20.0399 547.9356,-24.2569 548.444,-17.2754"/>
</g>
<!-- nativecommon -->
<g id="node15" class="node">
<title>nativecommon</title>
<ellipse fill="none" stroke="#000000" cx="1008.2428" cy="-18" rx="63.8893" ry="18"/>
<text text-anchor="middle" x="1008.2428" y="-14.3" font-family="Times,serif" font-size="14.00" fill="#000000">nativecommon</text>
</g>
<!-- pyrbo&#45;&gt;nativecommon -->
<g id="edge27" class="edge">
<title>pyrbo&#45;&gt;nativecommon</title>
<path fill="none" stroke="#000000" d="M945.9967,-74.7307C956.3998,-65.2493 969.996,-52.8578 981.8269,-42.0753"/>
<polygon fill="#000000" stroke="#000000" points="984.2619,-44.5916 989.2952,-35.2687 979.5466,-39.4179 984.2619,-44.5916"/>
</g>
<!-- outjack -->
<g id="node16" class="node">
<title>outjack</title>
<ellipse fill="none" stroke="#000000" cx="1088.2428" cy="-90" rx="36.2938" ry="18"/>
<text text-anchor="middle" x="1088.2428" y="-86.3" font-family="Times,serif" font-size="14.00" fill="#000000">outjack</text>
</g>
<!-- outjack&#45;&gt;nativecommon -->
<g id="edge16" class="edge">
<title>outjack&#45;&gt;nativecommon</title>
<path fill="none" stroke="#000000" d="M1070.4882,-74.0209C1060.0906,-64.663 1046.7526,-52.6588 1035.0922,-42.1645"/>
<polygon fill="#000000" stroke="#000000" points="1037.1188,-39.2796 1027.3444,-35.1915 1032.436,-44.4827 1037.1188,-39.2796"/>
</g>
<!-- pym2149 -->
<g id="node17" class="node">
<title>pym2149</title>
<ellipse fill="none" stroke="#000000" cx="812.2428" cy="-234" rx="44.393" ry="18"/>
<text text-anchor="middle" x="812.2428" y="-230.3" font-family="Times,serif" font-size="14.00" fill="#000000">pym2149</text>
</g>
<!-- pym2149&#45;&gt;aridity -->
<g id="edge17" class="edge">
<title>pym2149&#45;&gt;aridity</title>
<path fill="none" stroke="#000000" d="M767.7768,-232.5538C650.4937,-228.2844 339.6546,-213.8514 309.2428,-180 293.8679,-162.8862 300.7658,-136.2236 309.6134,-116.3548"/>
<polygon fill="#000000" stroke="#000000" points="312.8284,-117.7456 314.0242,-107.2184 306.5246,-114.7022 312.8284,-117.7456"/>
</g>
<!-- pym2149&#45;&gt;lagoon -->
<g id="edge19" class="edge">
<title>pym2149&#45;&gt;lagoon</title>
<path fill="none" stroke="#000000" d="M772.9621,-225.6763C739.48,-217.4426 690.9341,-202.7416 653.2428,-180 633.3233,-167.9813 634.3465,-157.2771 615.2428,-144 592.5686,-128.2414 564.6104,-114.5813 542.5547,-104.9426"/>
<polygon fill="#000000" stroke="#000000" points="543.7577,-101.6505 533.1872,-100.9339 541.0038,-108.086 543.7577,-101.6505"/>
</g>
<!-- pym2149&#45;&gt;timelyOSC -->
<g id="edge25" class="edge">
<title>pym2149&#45;&gt;timelyOSC</title>
<path fill="none" stroke="#000000" d="M809.5831,-215.7623C806.0013,-191.201 799.5914,-147.2474 795.3778,-118.3541"/>
<polygon fill="#000000" stroke="#000000" points="798.7874,-117.4798 793.8809,-108.0896 791.8606,-118.4901 798.7874,-117.4798"/>
</g>
<!-- pym2149&#45;&gt;diapyr -->
<g id="edge18" class="edge">
<title>pym2149&#45;&gt;diapyr</title>
<path fill="none" stroke="#000000" d="M804.4945,-216.0972C795.2015,-196.3431 777.9867,-164.6232 755.2428,-144 691.6507,-86.3375 596.8101,-48.2659 544.1067,-30.1992"/>
<polygon fill="#000000" stroke="#000000" points="545.0554,-26.8257 534.4614,-26.9555 542.8241,-33.4606 545.0554,-26.8257"/>
</g>
<!-- pym2149&#45;&gt;Lurlene -->
<g id="edge20" class="edge">
<title>pym2149&#45;&gt;Lurlene</title>
<path fill="none" stroke="#000000" d="M827.8839,-216.937C836.1855,-207.8806 846.5362,-196.5891 855.6907,-186.6023"/>
<polygon fill="#000000" stroke="#000000" points="858.5368,-188.6771 862.714,-178.9405 853.3767,-183.947 858.5368,-188.6771"/>
</g>
<!-- pym2149&#45;&gt;splut -->
<g id="edge24" class="edge">
<title>pym2149&#45;&gt;splut</title>
<path fill="none" stroke="#000000" d="M846.5583,-222.4839C880.2121,-210.7491 928.6703,-192.54 944.2428,-180 965.5785,-162.8191 982.5685,-136.392 993.3285,-116.6122"/>
<polygon fill="#000000" stroke="#000000" points="996.5592,-117.9877 998.102,-107.5058 990.3593,-114.7378 996.5592,-117.9877"/>
</g>
<!-- pym2149&#45;&gt;mynblep -->
<g id="edge21" class="edge">
<title>pym2149&#45;&gt;mynblep</title>
<path fill="none" stroke="#000000" d="M789.0741,-218.5542C773.4512,-208.1389 752.6504,-194.2717 735.5565,-182.8758"/>
<polygon fill="#000000" stroke="#000000" points="737.2645,-179.808 727.0025,-177.1731 733.3815,-185.6324 737.2645,-179.808"/>
</g>
<!-- pym2149&#45;&gt;pyrbo -->
<g id="edge23" class="edge">
<title>pym2149&#45;&gt;pyrbo</title>
<path fill="none" stroke="#000000" d="M845.9286,-222.2983C875.7122,-211.2095 915.8518,-194.1874 925.2428,-180 937.2613,-161.8429 937.3909,-136.8174 935.0081,-117.7637"/>
<polygon fill="#000000" stroke="#000000" points="938.4665,-117.2251 933.4854,-107.8742 931.5481,-118.2904 938.4665,-117.2251"/>
</g>
<!-- pym2149&#45;&gt;outjack -->
<g id="edge22" class="edge">
<title>pym2149&#45;&gt;outjack</title>
<path fill="none" stroke="#000000" d="M846.1617,-222.4486C852.5009,-220.2988 859.072,-218.0763 865.2428,-216 913.1974,-199.8645 928.6691,-203.9413 973.2428,-180 1007.4568,-161.6231 1041.9022,-133.013 1064.0511,-112.9968"/>
<polygon fill="#000000" stroke="#000000" points="1066.6264,-115.3841 1071.6316,-106.0461 1061.8956,-110.2247 1066.6264,-115.3841"/>
</g>
<!-- soak -->
<g id="node18" class="node">
<title>soak</title>
<ellipse fill="none" stroke="#000000" cx="443.2428" cy="-162" rx="27" ry="18"/>
<text text-anchor="middle" x="443.2428" y="-158.3" font-family="Times,serif" font-size="14.00" fill="#000000">soak</text>
</g>
<!-- soak&#45;&gt;aridity -->
<g id="edge31" class="edge">
<title>soak&#45;&gt;aridity</title>
<path fill="none" stroke="#000000" d="M423.0561,-149.7862C404.605,-138.6225 377.0246,-121.9352 355.6871,-109.0251"/>
<polygon fill="#000000" stroke="#000000" points="357.3372,-105.9328 346.9695,-103.7506 353.7135,-111.9219 357.3372,-105.9328"/>
</g>
<!-- soak&#45;&gt;lagoon -->
<g id="edge33" class="edge">
<title>soak&#45;&gt;lagoon</title>
<path fill="none" stroke="#000000" d="M456.6959,-146.3771C464.7559,-137.017 475.1756,-124.9167 484.2943,-114.3273"/>
<polygon fill="#000000" stroke="#000000" points="487.08,-116.4561 490.9531,-106.5945 481.7756,-111.8884 487.08,-116.4561"/>
</g>
<!-- soak&#45;&gt;diapyr -->
<g id="edge32" class="edge">
<title>soak&#45;&gt;diapyr</title>
<path fill="none" stroke="#000000" d="M444.5871,-143.9742C446.5374,-125.2275 451.2173,-95.4034 462.2428,-72 467.3263,-61.2095 474.9568,-50.6468 482.3854,-41.766"/>
<polygon fill="#000000" stroke="#000000" points="485.1207,-43.9551 489.072,-34.1247 479.8528,-39.3454 485.1207,-43.9551"/>
</g>
</g>
</svg>
