<?xml version="1.0" encoding="UTF-8" standalone="no"?>
<!DOCTYPE svg PUBLIC "-//W3C//DTD SVG 1.1//EN"
 "http://www.w3.org/Graphics/SVG/1.1/DTD/svg11.dtd">
<!-- Generated by graphviz version 2.40.1 (20161225.0304)
 -->
<!-- Title: %3 Pages: 1 -->
<svg width="1112pt" height="260pt"
 viewBox="0.00 0.00 1111.64 260.00" xmlns="http://www.w3.org/2000/svg" xmlns:xlink="http://www.w3.org/1999/xlink">
<g id="graph0" class="graph" transform="scale(1 1) rotate(0) translate(4 256)">
<title>%3</title>
<polygon fill="#ffffff" stroke="transparent" points="-4,4 -4,-256 1107.6396,-256 1107.6396,4 -4,4"/>
<!-- android&#45;hello&#45;world -->
<g id="node1" class="node">
<title>android&#45;hello&#45;world</title>
<ellipse fill="none" stroke="#000000" cx="81.2428" cy="-234" rx="81.4863" ry="18"/>
<text text-anchor="middle" x="81.2428" y="-230.3" font-family="Times,serif" font-size="14.00" fill="#000000">android&#45;hello&#45;world</text>
</g>
<!-- aridity -->
<g id="node2" class="node">
<title>aridity</title>
<ellipse fill="none" stroke="#000000" cx="388.2428" cy="-90" rx="33.5952" ry="18"/>
<text text-anchor="middle" x="388.2428" y="-86.3" font-family="Times,serif" font-size="14.00" fill="#000000">aridity</text>
</g>
<!-- Concern -->
<g id="node3" class="node">
<title>Concern</title>
<ellipse fill="none" stroke="#000000" cx="643.2428" cy="-162" rx="40.0939" ry="18"/>
<text text-anchor="middle" x="643.2428" y="-158.3" font-family="Times,serif" font-size="14.00" fill="#000000">Concern</text>
</g>
<!-- Concern&#45;&gt;aridity -->
<g id="edge1" class="edge">
<title>Concern&#45;&gt;aridity</title>
<path fill="none" stroke="#000000" d="M609.117,-152.3645C562.1395,-139.1002 477.7252,-115.2656 427.9672,-101.2163"/>
<polygon fill="#000000" stroke="#000000" points="428.7751,-97.8076 418.2002,-98.4586 426.8729,-104.5442 428.7751,-97.8076"/>
</g>
<!-- lagoon -->
<g id="node4" class="node">
<title>lagoon</title>
<ellipse fill="none" stroke="#000000" cx="550.2428" cy="-90" rx="34.394" ry="18"/>
<text text-anchor="middle" x="550.2428" y="-86.3" font-family="Times,serif" font-size="14.00" fill="#000000">lagoon</text>
</g>
<!-- Concern&#45;&gt;lagoon -->
<g id="edge2" class="edge">
<title>Concern&#45;&gt;lagoon</title>
<path fill="none" stroke="#000000" d="M623.0632,-146.3771C609.8446,-136.1433 592.3948,-122.6338 577.8908,-111.4049"/>
<polygon fill="#000000" stroke="#000000" points="579.7956,-108.4533 569.7457,-105.099 575.5104,-113.9884 579.7956,-108.4533"/>
</g>
<!-- timelyOSC -->
<g id="node5" class="node">
<title>timelyOSC</title>
<ellipse fill="none" stroke="#000000" cx="770.2428" cy="-90" rx="50.8918" ry="18"/>
<text text-anchor="middle" x="770.2428" y="-86.3" font-family="Times,serif" font-size="14.00" fill="#000000">timelyOSC</text>
</g>
<!-- Concern&#45;&gt;timelyOSC -->
<g id="edge3" class="edge">
<title>Concern&#45;&gt;timelyOSC</title>
<path fill="none" stroke="#000000" d="M668.3339,-147.7751C687.099,-137.1367 713.0321,-122.4344 734.0412,-110.5237"/>
<polygon fill="#000000" stroke="#000000" points="736.0323,-113.4183 743.0054,-105.4417 732.58,-107.3288 736.0323,-113.4183"/>
</g>
<!-- diapyr -->
<g id="node7" class="node">
<title>diapyr</title>
<ellipse fill="none" stroke="#000000" cx="469.2428" cy="-18" rx="33.2948" ry="18"/>
<text text-anchor="middle" x="469.2428" y="-14.3" font-family="Times,serif" font-size="14.00" fill="#000000">diapyr</text>
</g>
<!-- lagoon&#45;&gt;diapyr -->
<g id="edge7" class="edge">
<title>lagoon&#45;&gt;diapyr</title>
<path fill="none" stroke="#000000" d="M532.667,-74.3771C521.5219,-64.4703 506.9233,-51.4938 494.5419,-40.4881"/>
<polygon fill="#000000" stroke="#000000" points="496.5837,-37.6202 486.7843,-33.5924 491.9331,-42.852 496.5837,-37.6202"/>
</g>
<!-- Cowpox -->
<g id="node6" class="node">
<title>Cowpox</title>
<ellipse fill="none" stroke="#000000" cx="321.2428" cy="-162" rx="40.0939" ry="18"/>
<text text-anchor="middle" x="321.2428" y="-158.3" font-family="Times,serif" font-size="14.00" fill="#000000">Cowpox</text>
</g>
<!-- Cowpox&#45;&gt;aridity -->
<g id="edge4" class="edge">
<title>Cowpox&#45;&gt;aridity</title>
<path fill="none" stroke="#000000" d="M336.7823,-145.3008C345.4077,-136.0317 356.2884,-124.339 365.8207,-114.0954"/>
<polygon fill="#000000" stroke="#000000" points="368.5374,-116.3137 372.7875,-106.6087 363.4129,-111.5451 368.5374,-116.3137"/>
</g>
<!-- Cowpox&#45;&gt;lagoon -->
<g id="edge6" class="edge">
<title>Cowpox&#45;&gt;lagoon</title>
<path fill="none" stroke="#000000" d="M354.5414,-151.5306C395.9715,-138.5045 466.6242,-116.2906 510.7459,-102.4182"/>
<polygon fill="#000000" stroke="#000000" points="512.0573,-105.6749 520.5471,-99.3366 509.9577,-98.9972 512.0573,-105.6749"/>
</g>
<!-- Cowpox&#45;&gt;diapyr -->
<g id="edge5" class="edge">
<title>Cowpox&#45;&gt;diapyr</title>
<path fill="none" stroke="#000000" d="M321.5655,-143.9964C322.8435,-124.152 327.7381,-92.3514 345.2428,-72 366.2871,-47.5333 400.4767,-33.773 427.6309,-26.2753"/>
<polygon fill="#000000" stroke="#000000" points="428.8379,-29.5789 437.6514,-23.6991 427.0948,-22.7993 428.8379,-29.5789"/>
</g>
<!-- dotfiles -->
<g id="node8" class="node">
<title>dotfiles</title>
<ellipse fill="none" stroke="#000000" cx="958.2428" cy="-234" rx="37.0935" ry="18"/>
<text text-anchor="middle" x="958.2428" y="-230.3" font-family="Times,serif" font-size="14.00" fill="#000000">dotfiles</text>
</g>
<!-- Leytonium -->
<g id="node9" class="node">
<title>Leytonium</title>
<ellipse fill="none" stroke="#000000" cx="230.2428" cy="-234" rx="50.0912" ry="18"/>
<text text-anchor="middle" x="230.2428" y="-230.3" font-family="Times,serif" font-size="14.00" fill="#000000">Leytonium</text>
</g>
<!-- Leytonium&#45;&gt;aridity -->
<g id="edge8" class="edge">
<title>Leytonium&#45;&gt;aridity</title>
<path fill="none" stroke="#000000" d="M212.1833,-216.8449C194.3075,-197.761 171.9277,-166.6398 189.2428,-144 208.0508,-119.4081 292.2898,-103.3959 344.9555,-95.596"/>
<polygon fill="#000000" stroke="#000000" points="345.6392,-99.0338 355.0389,-94.1454 344.6424,-92.1051 345.6392,-99.0338"/>
</g>
<!-- Leytonium&#45;&gt;lagoon -->
<g id="edge9" class="edge">
<title>Leytonium&#45;&gt;lagoon</title>
<path fill="none" stroke="#000000" d="M278.8543,-229.3989C365.3237,-220.7209 538.5028,-200.9203 556.2428,-180 570.6459,-163.0149 567.1952,-137.1272 561.2821,-117.4695"/>
<polygon fill="#000000" stroke="#000000" points="564.5489,-116.2029 558.0469,-107.8378 557.9132,-118.4318 564.5489,-116.2029"/>
</g>
<!-- pyven -->
<g id="node10" class="node">
<title>pyven</title>
<ellipse fill="none" stroke="#000000" cx="230.2428" cy="-162" rx="32.4942" ry="18"/>
<text text-anchor="middle" x="230.2428" y="-158.3" font-family="Times,serif" font-size="14.00" fill="#000000">pyven</text>
</g>
<!-- Leytonium&#45;&gt;pyven -->
<g id="edge10" class="edge">
<title>Leytonium&#45;&gt;pyven</title>
<path fill="none" stroke="#000000" d="M230.2428,-215.8314C230.2428,-208.131 230.2428,-198.9743 230.2428,-190.4166"/>
<polygon fill="#000000" stroke="#000000" points="233.7429,-190.4132 230.2428,-180.4133 226.7429,-190.4133 233.7429,-190.4132"/>
</g>
<!-- pyven&#45;&gt;aridity -->
<g id="edge31" class="edge">
<title>pyven&#45;&gt;aridity</title>
<path fill="none" stroke="#000000" d="M255.6282,-150.432C282.076,-138.3798 323.7032,-119.4104 353.2584,-105.9423"/>
<polygon fill="#000000" stroke="#000000" points="354.7471,-109.1102 362.3955,-101.7785 351.8444,-102.7404 354.7471,-109.1102"/>
</g>
<!-- pyven&#45;&gt;lagoon -->
<g id="edge33" class="edge">
<title>pyven&#45;&gt;lagoon</title>
<path fill="none" stroke="#000000" d="M255.2354,-150.2593C260.7551,-147.9578 266.6317,-145.7257 272.2428,-144 315.5118,-130.6924 440.3785,-108.5884 507.0626,-97.2288"/>
<polygon fill="#000000" stroke="#000000" points="507.9707,-100.6249 517.2441,-95.5009 506.7994,-93.7235 507.9707,-100.6249"/>
</g>
<!-- pyven&#45;&gt;diapyr -->
<g id="edge32" class="edge">
<title>pyven&#45;&gt;diapyr</title>
<path fill="none" stroke="#000000" d="M243.9232,-145.2619C260.9276,-125.3977 291.7023,-92.4049 324.2428,-72 356.9579,-51.4855 398.6522,-36.9831 428.9262,-28.2093"/>
<polygon fill="#000000" stroke="#000000" points="430.047,-31.53 438.7258,-25.4531 428.1516,-24.7914 430.047,-31.53"/>
</g>
<!-- libiot -->
<g id="node11" class="node">
<title>libiot</title>
<ellipse fill="none" stroke="#000000" cx="446.2428" cy="-162" rx="29.4969" ry="18"/>
<text text-anchor="middle" x="446.2428" y="-158.3" font-family="Times,serif" font-size="14.00" fill="#000000">libiot</text>
</g>
<!-- libiot&#45;&gt;aridity -->
<g id="edge11" class="edge">
<title>libiot&#45;&gt;aridity</title>
<path fill="none" stroke="#000000" d="M433.0817,-145.6621C425.6974,-136.4953 416.3366,-124.8751 408.0802,-114.6257"/>
<polygon fill="#000000" stroke="#000000" points="410.7533,-112.3648 401.7543,-106.7729 405.302,-116.7561 410.7533,-112.3648"/>
</g>
<!-- libiot&#45;&gt;lagoon -->
<g id="edge13" class="edge">
<title>libiot&#45;&gt;lagoon</title>
<path fill="none" stroke="#000000" d="M465.8044,-148.4574C481.3787,-137.6751 503.4168,-122.418 521.0733,-110.1943"/>
<polygon fill="#000000" stroke="#000000" points="523.1118,-113.04 529.3415,-104.4701 519.1273,-107.2846 523.1118,-113.04"/>
</g>
<!-- libiot&#45;&gt;diapyr -->
<g id="edge12" class="edge">
<title>libiot&#45;&gt;diapyr</title>
<path fill="none" stroke="#000000" d="M449.1093,-144.0535C453.0346,-119.4774 460.1225,-75.1008 464.755,-46.0974"/>
<polygon fill="#000000" stroke="#000000" points="468.2191,-46.5996 466.3402,-36.1727 461.3067,-45.4955 468.2191,-46.5996"/>
</g>
<!-- Lurlene -->
<g id="node12" class="node">
<title>Lurlene</title>
<ellipse fill="none" stroke="#000000" cx="925.2428" cy="-162" rx="38.1938" ry="18"/>
<text text-anchor="middle" x="925.2428" y="-158.3" font-family="Times,serif" font-size="14.00" fill="#000000">Lurlene</text>
</g>
<!-- Lurlene&#45;&gt;timelyOSC -->
<g id="edge16" class="edge">
<title>Lurlene&#45;&gt;timelyOSC</title>
<path fill="none" stroke="#000000" d="M897.8887,-149.2936C873.6329,-138.0264 837.8924,-121.4243 810.3953,-108.6515"/>
<polygon fill="#000000" stroke="#000000" points="811.5891,-105.3469 801.0453,-104.3083 808.6401,-111.6954 811.5891,-105.3469"/>
</g>
<!-- Lurlene&#45;&gt;diapyr -->
<g id="edge14" class="edge">
<title>Lurlene&#45;&gt;diapyr</title>
<path fill="none" stroke="#000000" d="M907.835,-145.5007C880.4332,-119.5301 830.317,-72.0362 830.2428,-72 774.8609,-45.0128 595.3612,-27.8695 512.2279,-21.1848"/>
<polygon fill="#000000" stroke="#000000" points="512.352,-17.6837 502.1072,-20.3845 511.8001,-24.662 512.352,-17.6837"/>
</g>
<!-- splut -->
<g id="node13" class="node">
<title>splut</title>
<ellipse fill="none" stroke="#000000" cx="985.2428" cy="-90" rx="27.8951" ry="18"/>
<text text-anchor="middle" x="985.2428" y="-86.3" font-family="Times,serif" font-size="14.00" fill="#000000">splut</text>
</g>
<!-- Lurlene&#45;&gt;splut -->
<g id="edge15" class="edge">
<title>Lurlene&#45;&gt;splut</title>
<path fill="none" stroke="#000000" d="M939.462,-144.937C947.2277,-135.6181 956.9656,-123.9326 965.4617,-113.7373"/>
<polygon fill="#000000" stroke="#000000" points="968.2347,-115.8769 971.9478,-105.954 962.8571,-111.3956 968.2347,-115.8769"/>
</g>
<!-- minBlepy -->
<g id="node14" class="node">
<title>minBlepy</title>
<ellipse fill="none" stroke="#000000" cx="785.2428" cy="-162" rx="46.2923" ry="18"/>
<text text-anchor="middle" x="785.2428" y="-158.3" font-family="Times,serif" font-size="14.00" fill="#000000">minBlepy</text>
</g>
<!-- minBlepy&#45;&gt;lagoon -->
<g id="edge17" class="edge">
<title>minBlepy&#45;&gt;lagoon</title>
<path fill="none" stroke="#000000" d="M748.7819,-150.829C705.6339,-137.6092 634.0595,-115.68 589.66,-102.0767"/>
<polygon fill="#000000" stroke="#000000" points="590.6631,-98.7236 580.0765,-99.1405 588.6125,-105.4165 590.6631,-98.7236"/>
</g>
<!-- pyrbo -->
<g id="node15" class="node">
<title>pyrbo</title>
<ellipse fill="none" stroke="#000000" cx="908.2428" cy="-90" rx="31.3957" ry="18"/>
<text text-anchor="middle" x="908.2428" y="-86.3" font-family="Times,serif" font-size="14.00" fill="#000000">pyrbo</text>
</g>
<!-- minBlepy&#45;&gt;pyrbo -->
<g id="edge18" class="edge">
<title>minBlepy&#45;&gt;pyrbo</title>
<path fill="none" stroke="#000000" d="M811.0276,-146.9064C830.4185,-135.5557 857.0587,-119.9614 877.5485,-107.9674"/>
<polygon fill="#000000" stroke="#000000" points="879.3354,-110.977 886.1974,-102.9046 875.7991,-104.9359 879.3354,-110.977"/>
</g>
<!-- pyrbo&#45;&gt;diapyr -->
<g id="edge29" class="edge">
<title>pyrbo&#45;&gt;diapyr</title>
<path fill="none" stroke="#000000" d="M883.3812,-78.8004C876.9278,-76.2431 869.9135,-73.7628 863.2428,-72 738.5439,-39.0467 586.0287,-25.432 512.6984,-20.4799"/>
<polygon fill="#000000" stroke="#000000" points="512.6735,-16.9709 502.4664,-19.8109 512.2167,-23.956 512.6735,-16.9709"/>
</g>
<!-- nativecommon -->
<g id="node16" class="node">
<title>nativecommon</title>
<ellipse fill="none" stroke="#000000" cx="987.2428" cy="-18" rx="63.8893" ry="18"/>
<text text-anchor="middle" x="987.2428" y="-14.3" font-family="Times,serif" font-size="14.00" fill="#000000">nativecommon</text>
</g>
<!-- pyrbo&#45;&gt;nativecommon -->
<g id="edge30" class="edge">
<title>pyrbo&#45;&gt;nativecommon</title>
<path fill="none" stroke="#000000" d="M924.9967,-74.7307C935.3998,-65.2493 948.996,-52.8578 960.8269,-42.0753"/>
<polygon fill="#000000" stroke="#000000" points="963.2619,-44.5916 968.2952,-35.2687 958.5466,-39.4179 963.2619,-44.5916"/>
</g>
<!-- outjack -->
<g id="node17" class="node">
<title>outjack</title>
<ellipse fill="none" stroke="#000000" cx="1067.2428" cy="-90" rx="36.2938" ry="18"/>
<text text-anchor="middle" x="1067.2428" y="-86.3" font-family="Times,serif" font-size="14.00" fill="#000000">outjack</text>
</g>
<!-- outjack&#45;&gt;nativecommon -->
<g id="edge19" class="edge">
<title>outjack&#45;&gt;nativecommon</title>
<path fill="none" stroke="#000000" d="M1049.4882,-74.0209C1039.0906,-64.663 1025.7526,-52.6588 1014.0922,-42.1645"/>
<polygon fill="#000000" stroke="#000000" points="1016.1188,-39.2796 1006.3444,-35.1915 1011.436,-44.4827 1016.1188,-39.2796"/>
</g>
<!-- pym2149 -->
<g id="node18" class="node">
<title>pym2149</title>
<ellipse fill="none" stroke="#000000" cx="859.2428" cy="-234" rx="44.393" ry="18"/>
<text text-anchor="middle" x="859.2428" y="-230.3" font-family="Times,serif" font-size="14.00" fill="#000000">pym2149</text>
</g>
<!-- pym2149&#45;&gt;aridity -->
<g id="edge20" class="edge">
<title>pym2149&#45;&gt;aridity</title>
<path fill="none" stroke="#000000" d="M815.0647,-231.5848C707.4043,-225.2994 438.0965,-207.0217 408.2428,-180 391.3436,-164.7039 387.0567,-138.5757 386.5797,-118.3999"/>
<polygon fill="#000000" stroke="#000000" points="390.0808,-118.2167 386.6406,-108.196 383.0809,-118.1749 390.0808,-118.2167"/>
</g>
<!-- pym2149&#45;&gt;lagoon -->
<g id="edge22" class="edge">
<title>pym2149&#45;&gt;lagoon</title>
<path fill="none" stroke="#000000" d="M823.8744,-223.0902C796.9492,-213.8864 759.6381,-199.1502 730.2428,-180 710.75,-167.301 711.9428,-156.3752 692.2428,-144 660.6767,-124.1707 620.6828,-109.7771 591.1886,-100.8612"/>
<polygon fill="#000000" stroke="#000000" points="591.8061,-97.3948 581.2251,-97.9361 589.8342,-104.1114 591.8061,-97.3948"/>
</g>
<!-- pym2149&#45;&gt;timelyOSC -->
<g id="edge28" class="edge">
<title>pym2149&#45;&gt;timelyOSC</title>
<path fill="none" stroke="#000000" d="M859.0242,-215.7238C858.0059,-196.5017 854.0892,-166.0418 840.2428,-144 831.9507,-130.8 819.2205,-119.5743 806.8787,-110.8341"/>
<polygon fill="#000000" stroke="#000000" points="808.7108,-107.8486 798.4558,-105.1865 804.8124,-113.6626 808.7108,-107.8486"/>
</g>
<!-- pym2149&#45;&gt;diapyr -->
<g id="edge21" class="edge">
<title>pym2149&#45;&gt;diapyr</title>
<path fill="none" stroke="#000000" d="M815.0822,-232.0735C669.1639,-225.4975 210.5222,-203.0634 189.2428,-180 112.0796,-96.3674 332.462,-43.6391 427.7286,-25.2852"/>
<polygon fill="#000000" stroke="#000000" points="428.4471,-28.7115 437.6236,-23.416 427.1476,-21.8331 428.4471,-28.7115"/>
</g>
<!-- pym2149&#45;&gt;Lurlene -->
<g id="edge23" class="edge">
<title>pym2149&#45;&gt;Lurlene</title>
<path fill="none" stroke="#000000" d="M874.8839,-216.937C883.1855,-207.8806 893.5362,-196.5891 902.6907,-186.6023"/>
<polygon fill="#000000" stroke="#000000" points="905.5368,-188.6771 909.714,-178.9405 900.3767,-183.947 905.5368,-188.6771"/>
</g>
<!-- pym2149&#45;&gt;splut -->
<g id="edge27" class="edge">
<title>pym2149&#45;&gt;splut</title>
<path fill="none" stroke="#000000" d="M892.8146,-222.1359C929.123,-208.9696 982.6103,-188.4639 988.2428,-180 1000.3009,-161.8805 998.3568,-136.8516 994.0739,-117.7871"/>
<polygon fill="#000000" stroke="#000000" points="997.4092,-116.7037 991.5279,-107.8911 990.6299,-118.4478 997.4092,-116.7037"/>
</g>
<!-- pym2149&#45;&gt;minBlepy -->
<g id="edge24" class="edge">
<title>pym2149&#45;&gt;minBlepy</title>
<path fill="none" stroke="#000000" d="M842.0797,-217.3008C832.5285,-208.0077 820.4734,-196.2784 809.9257,-186.0158"/>
<polygon fill="#000000" stroke="#000000" points="812.1772,-183.3231 802.5691,-178.8581 807.2957,-188.3402 812.1772,-183.3231"/>
</g>
<!-- pym2149&#45;&gt;pyrbo -->
<g id="edge26" class="edge">
<title>pym2149&#45;&gt;pyrbo</title>
<path fill="none" stroke="#000000" d="M893.0724,-222.3912C922.9589,-211.3689 963.1692,-194.3925 972.2428,-180 980.7757,-166.4652 978.9849,-158.5101 972.2428,-144 965.374,-129.2174 952.2448,-117.025 939.6567,-107.9896"/>
<polygon fill="#000000" stroke="#000000" points="941.3638,-104.9199 931.112,-102.2457 937.4586,-110.7293 941.3638,-104.9199"/>
</g>
<!-- pym2149&#45;&gt;outjack -->
<g id="edge25" class="edge">
<title>pym2149&#45;&gt;outjack</title>
<path fill="none" stroke="#000000" d="M893.0324,-222.1763C934.9669,-207.4161 1001.5709,-183.6529 1006.2428,-180 1027.7114,-163.2142 1044.3664,-136.7365 1054.8089,-116.8376"/>
<polygon fill="#000000" stroke="#000000" points="1058.0547,-118.1739 1059.4301,-107.6687 1051.8038,-115.0234 1058.0547,-118.1739"/>
</g>
<!-- soak -->
<g id="node19" class="node">
<title>soak</title>
<ellipse fill="none" stroke="#000000" cx="520.2428" cy="-162" rx="27" ry="18"/>
<text text-anchor="middle" x="520.2428" y="-158.3" font-family="Times,serif" font-size="14.00" fill="#000000">soak</text>
</g>
<!-- soak&#45;&gt;aridity -->
<g id="edge34" class="edge">
<title>soak&#45;&gt;aridity</title>
<path fill="none" stroke="#000000" d="M499.327,-150.5914C478.3127,-139.129 445.6179,-121.2955 421.1305,-107.9388"/>
<polygon fill="#000000" stroke="#000000" points="422.6438,-104.7774 412.1888,-103.0615 419.2918,-110.9227 422.6438,-104.7774"/>
</g>
<!-- soak&#45;&gt;lagoon -->
<g id="edge36" class="edge">
<title>soak&#45;&gt;lagoon</title>
<path fill="none" stroke="#000000" d="M527.505,-144.5708C530.9179,-136.3798 535.0668,-126.4225 538.8815,-117.2671"/>
<polygon fill="#000000" stroke="#000000" points="542.2236,-118.3458 542.8391,-107.7689 535.7621,-115.6535 542.2236,-118.3458"/>
</g>
<!-- soak&#45;&gt;diapyr -->
<g id="edge35" class="edge">
<title>soak&#45;&gt;diapyr</title>
<path fill="none" stroke="#000000" d="M513.9892,-144.3428C505.2333,-119.6202 489.2393,-74.4608 478.9342,-45.3639"/>
<polygon fill="#000000" stroke="#000000" points="482.1853,-44.0594 475.5475,-35.8017 475.5869,-46.3964 482.1853,-44.0594"/>
</g>
</g>
</svg>
